<svg xmlns="http://www.w3.org/2000/svg" width="58.393" height="34.796" viewBox="0 0 58.393 34.796">
  <g id="Group_1" data-name="Group 1" transform="translate(2 2)">
    <g id="Union_1" data-name="Union 1" transform="translate(15.794 0)" fill="rgba(0,0,0,0.18)">
      <path d="M 27.24032211303711 19.52744102478027 L 27.11286163330078 19.52744102478027 L 2.931172609329224 19.52744102478027 C 1.965732574462891 19.52744102478027 1.043492555618286 19.28701210021973 0.3343425691127777 18.8504524230957 C -0.5136474370956421 18.32842254638672 -0.9999974370002747 17.55302238464355 -0.9999974370002747 16.72305107116699 L -0.9999974370002747 1.836621880531311 C -0.9999974370002747 1.006521940231323 -0.5136374235153198 0.2310619354248047 0.334382563829422 -0.2909180819988251 C 1.043472528457642 -0.7273880839347839 1.965702533721924 -0.9677580595016479 2.931172609329224 -0.9677580595016479 L 27.11286163330078 -0.9677580595016479 C 27.3997917175293 -0.9677580595016479 27.65891265869141 -0.9768580794334412 27.90949249267578 -0.9856680631637573 C 28.11933326721191 -0.9930380582809448 28.31753349304199 -0.9999980926513672 28.50218200683594 -0.9999980926513672 C 28.83559989929199 -0.9999980926513672 29.22056770324707 -0.9798951745033264 29.57517433166504 -0.8371690511703491 C 29.9153995513916 -0.7251139283180237 30.23004722595215 -0.5386959910392761 30.48831176757812 -0.2956980764865875 L 38.8632926940918 7.579892158508301 C 39.33771133422852 8.026021957397461 39.59892272949219 8.62391185760498 39.59882354736328 9.263431549072266 C 39.59873199462891 9.902812004089355 39.33744430541992 10.50045204162598 38.86308288574219 10.94625186920166 L 30.48812294006348 18.8221321105957 C 30.4525203704834 18.85560989379883 30.41543388366699 18.88839340209961 30.37747192382812 18.91996383666992 C 30.18209648132324 19.10062217712402 29.94197082519531 19.2392749786377 29.66246795654297 19.33274841308594 C 29.39974212646484 19.43012428283691 29.12420082092285 19.48239707946777 28.84228706359863 19.48834991455078 C 28.40117835998535 19.52743911743164 27.86175155639648 19.52744102478027 27.24032211303711 19.52744102478027 Z" stroke="none"/>
      <path d="M 27.24032211303711 18.52744102478027 C 27.89497184753418 18.52744102478027 28.40066337585449 18.52631187438965 28.79019165039062 18.48892211914062 C 28.97383308410645 18.48865127563477 29.15743255615234 18.45547103881836 29.33009338378906 18.38937187194824 C 29.49078178405762 18.33770179748535 29.61721229553223 18.26667213439941 29.71596336364746 18.16911125183105 C 29.74582290649414 18.14527130126953 29.77486228942871 18.12016105651855 29.80305290222168 18.09365272521973 L 38.17824172973633 10.21756172180176 C 38.73902130126953 9.690531730651855 38.73902130126953 8.835731506347656 38.17824172973633 8.308382034301758 L 29.80305290222168 0.4326019287109375 C 29.63639259338379 0.2757919430732727 29.43892288208008 0.1656319350004196 29.22891235351562 0.1020719259977341 C 29.05135917663574 0.02194218337535858 28.80852508544922 3.101501533819828e-06 28.50218391418457 3.101501533819828e-06 C 28.13100051879883 3.101501533819828e-06 27.6666316986084 0.03224192932248116 27.11286163330078 0.03224192932248116 L 2.931172609329224 0.03224192932248116 C 1.312472581863403 0.03224192932248116 2.557983407314168e-06 0.8399619460105896 2.557983407314168e-06 1.836621880531311 L 2.557983407314168e-06 16.72305107116699 C 2.557983407314168e-06 17.71941184997559 1.312472581863403 18.52744102478027 2.931172609329224 18.52744102478027 L 27.11286163330078 18.52744102478027 C 27.15603256225586 18.52744102478027 27.19837188720703 18.52744102478027 27.24032211303711 18.52744102478027 M 27.24032211303711 20.52744102478027 L 27.11286163330078 20.52744102478027 L 2.931172609329224 20.52744102478027 C 1.78315258026123 20.52744102478027 0.674742579460144 20.23430252075195 -0.1898974478244781 19.7020320892334 C -1.340237498283386 18.99386215209961 -1.999997496604919 17.90807151794434 -1.999997496604919 16.72305107116699 L -1.999997496604919 1.836621880531311 C -1.999997496604919 0.6514519453048706 -1.340207457542419 -0.4344080686569214 -0.1898074448108673 -1.142518043518066 C 0.6747525334358215 -1.674678087234497 1.783142566680908 -1.967758059501648 2.931172609329224 -1.967758059501648 L 27.11286163330078 -1.967758059501648 C 27.38223266601562 -1.967758059501648 27.63243293762207 -1.976548075675964 27.87439346313477 -1.985048055648804 C 28.09325218200684 -1.992738127708435 28.29997253417969 -1.999998092651367 28.50218200683594 -1.999998092651367 C 28.92548179626465 -1.999998092651367 29.41952705383301 -1.971978545188904 29.92001533508301 -1.776253819465637 C 30.38614463806152 -1.61756956577301 30.81751251220703 -1.359009027481079 31.17356300354004 -1.023998022079468 L 39.5483512878418 6.851391792297363 C 40.21608352661133 7.479321956634521 40.59896087646484 8.358531951904297 40.59882354736328 9.263591766357422 C 40.59869384765625 10.16850185394287 40.21565246582031 11.04741191864014 39.54792404174805 11.67495155334473 L 31.17319297790527 19.55061149597168 C 31.12911415100098 19.59206008911133 31.0834789276123 19.63271522521973 31.03683853149414 19.67210578918457 C 30.74439430236816 19.93749237060547 30.39454078674316 20.14027214050293 29.9946231842041 20.27607345581055 C 29.64257431030273 20.40472412109375 29.27459907531738 20.47558403015137 28.89859008789062 20.48721504211426 C 28.42092323303223 20.52744483947754 27.87129402160645 20.52744102478027 27.24032211303711 20.52744102478027 Z" stroke="none" fill="#fff"/>
    </g>
    <g id="Union_2" data-name="Union 2" transform="translate(38.599 30.796) rotate(180)" fill="rgba(255,255,255,0.06)">
      <path d="M 27.24032211303711 19.52744102478027 L 27.11286163330078 19.52744102478027 L 2.931172609329224 19.52744102478027 C 1.965732574462891 19.52744102478027 1.043492555618286 19.28702163696289 0.3343425691127777 18.85046195983887 C -0.5136474370956421 18.32843208312988 -0.9999974370002747 17.55302238464355 -0.9999974370002747 16.72305107116699 L -0.9999974370002747 1.836621880531311 C -0.9999974370002747 1.006521940231323 -0.5136374235153198 0.2310619354248047 0.334382563829422 -0.2909180819988251 C 1.043472528457642 -0.7273880839347839 1.965692520141602 -0.9677580595016479 2.931172609329224 -0.9677580595016479 L 27.11286163330078 -0.9677580595016479 C 27.3997917175293 -0.9677580595016479 27.65891265869141 -0.9768580794334412 27.90949249267578 -0.9856680631637573 C 28.11933326721191 -0.9930380582809448 28.31753349304199 -0.9999980926513672 28.50218200683594 -0.9999980926513672 C 28.83559989929199 -0.9999980926513672 29.22056770324707 -0.9798951745033264 29.57517433166504 -0.8371690511703491 C 29.9153995513916 -0.7251139283180237 30.23004722595215 -0.5386959910392761 30.48831176757812 -0.2956980764865875 L 38.8632926940918 7.579892158508301 C 39.33770370483398 8.02601146697998 39.59892272949219 8.623902320861816 39.59882354736328 9.263422012329102 C 39.59873199462891 9.902801513671875 39.33744430541992 10.5004415512085 38.86308288574219 10.94625186920166 L 30.48812294006348 18.8221321105957 C 30.4525203704834 18.85560989379883 30.41543388366699 18.88839340209961 30.37747192382812 18.91996383666992 C 30.18204879760742 19.10066795349121 29.94185447692871 19.23934745788574 29.6622486114502 19.33283996582031 C 29.39958000183105 19.43016052246094 29.12412071228027 19.48239898681641 28.84228706359863 19.48834991455078 C 28.40117835998535 19.52743911743164 27.86175155639648 19.52744102478027 27.24032211303711 19.52744102478027 Z" stroke="none"/>
      <path d="M 27.24032211303711 18.52744102478027 C 27.89497184753418 18.52744102478027 28.40066337585449 18.52631187438965 28.79019165039062 18.48892211914062 C 28.97383308410645 18.48865127563477 29.15743255615234 18.45547103881836 29.33009338378906 18.38938140869141 C 29.49078178405762 18.33770179748535 29.61721229553223 18.26667213439941 29.71596336364746 18.16911125183105 C 29.74582290649414 18.14527130126953 29.77486228942871 18.12016105651855 29.80305290222168 18.09365272521973 L 38.17824172973633 10.21756172180176 C 38.73902130126953 9.690531730651855 38.73902130126953 8.835721969604492 38.17824172973633 8.308382034301758 L 29.80305290222168 0.4326019287109375 C 29.63639259338379 0.2757919430732727 29.43892288208008 0.1656319350004196 29.22891235351562 0.1020719259977341 C 29.05135917663574 0.02194218337535858 28.80852508544922 3.101501533819828e-06 28.50218391418457 3.101501533819828e-06 C 28.13100051879883 3.101501533819828e-06 27.6666316986084 0.03224192932248116 27.11286163330078 0.03224192932248116 L 2.931172609329224 0.03224192932248116 C 1.312472581863403 0.03224192932248116 2.557983407314168e-06 0.8399519324302673 2.557983407314168e-06 1.836621880531311 L 2.557983407314168e-06 16.72305107116699 C 2.557983407314168e-06 17.71942138671875 1.312472581863403 18.52744102478027 2.931172609329224 18.52744102478027 L 27.11286163330078 18.52744102478027 C 27.15603256225586 18.52744102478027 27.19837188720703 18.52744102478027 27.24032211303711 18.52744102478027 M 27.24032211303711 20.52744102478027 L 27.11286163330078 20.52744102478027 L 2.931172609329224 20.52744102478027 C 1.78315258026123 20.52744102478027 0.674742579460144 20.23430252075195 -0.1898974478244781 19.7020320892334 C -1.340237498283386 18.99387168884277 -1.999997496604919 17.90807151794434 -1.999997496604919 16.72305107116699 L -1.999997496604919 1.836621880531311 C -1.999997496604919 0.6514419317245483 -1.340207457542419 -0.4344180822372437 -0.1897974461317062 -1.142528057098389 C 0.6747525334358215 -1.674688100814819 1.783132553100586 -1.967758059501648 2.931172609329224 -1.967758059501648 L 27.11286163330078 -1.967758059501648 C 27.38223266601562 -1.967758059501648 27.63243293762207 -1.976548075675964 27.87439346313477 -1.985048055648804 C 28.09325218200684 -1.992738127708435 28.29997253417969 -1.999998092651367 28.50218200683594 -1.999998092651367 C 28.92548179626465 -1.999998092651367 29.41952705383301 -1.971978545188904 29.92001533508301 -1.776253819465637 C 30.38614463806152 -1.61756956577301 30.81751251220703 -1.359009027481079 31.17356300354004 -1.023998022079468 L 39.5483512878418 6.851391792297363 C 40.21607208251953 7.479301929473877 40.59896087646484 8.358511924743652 40.59882354736328 9.263571739196777 C 40.59869384765625 10.16849231719971 40.21565246582031 11.04740238189697 39.54792404174805 11.67495155334473 L 31.17319297790527 19.55061149597168 C 31.12912559509277 19.59204864501953 31.08349609375 19.63269996643066 31.03686904907227 19.67207908630371 C 30.74449920654297 19.93740463256836 30.39466094970703 20.14019393920898 29.99484825134277 20.27600288391113 C 29.64272880554199 20.40469551086426 29.27466583251953 20.47558403015137 28.89858818054199 20.48721504211426 C 28.42092132568359 20.52744483947754 27.87129402160645 20.52744102478027 27.24032211303711 20.52744102478027 Z" stroke="none" fill="#fff"/>
    </g>
  </g>
</svg>
