<svg xmlns="http://www.w3.org/2000/svg" xmlns:xlink="http://www.w3.org/1999/xlink" width="256.167" height="78.077" viewBox="0 0 256.167 78.077">
  <defs>
    <filter id="Union_3" x="0" y="0" width="256.167" height="78.077" filterUnits="userSpaceOnUse">
      <feOffset dy="3" input="SourceAlpha"/>
      <feGaussianBlur stdDeviation="4" result="blur"/>
      <feFlood flood-opacity="0.302"/>
      <feComposite operator="in" in2="blur"/>
      <feComposite in="SourceGraphic"/>
    </filter>
    <filter id="Getting_started" x="52.176" y="24" width="166" height="29" filterUnits="userSpaceOnUse">
      <feOffset dy="2" input="SourceAlpha"/>
      <feGaussianBlur stdDeviation="1" result="blur-2"/>
      <feFlood flood-opacity="0.565"/>
      <feComposite operator="in" in2="blur-2"/>
      <feComposite in="SourceGraphic"/>
    </filter>
  </defs>
  <g id="Group_6" data-name="Group 6" transform="translate(-1363.002 -449)">
    <g transform="matrix(1, 0, 0, 1, 1363, 449)" filter="url(#Union_3)">
      <path id="Union_3-2" data-name="Union 3" d="M31.717,54.078H-150.72c-5.125,0-9.28-2.358-9.28-5.266V5.361c0-2.909,4.155-5.266,9.28-5.266H31.717c3.135,0,5.365-.3,6.623.174a.606.606,0,0,1,.305.138l.023.017a1.663,1.663,0,0,1,.3.221L70.835,24.251a3.582,3.582,0,0,1,0,5.573L40.137,52.85a2.482,2.482,0,0,1-.783.588l-.035.026c-.044.018-.092.037-.145.056-1.3.547-3.472.557-7.049.557Z" transform="translate(84.17 63.08) rotate(180)" fill="#8d4d9b" opacity="0.95"/>
    </g>
    <g transform="matrix(1, 0, 0, 1, 1363, 449)" filter="url(#Getting_started)">
      <text id="Getting_started-2" data-name="Getting started" transform="translate(135.18 43)" fill="#fff" font-size="18" font-family="Quicksand-Medium, Quicksand" font-weight="500"><tspan x="-79.722" y="0">GETTING STARTED</tspan></text>
    </g>
  </g>
</svg>
