<svg xmlns="http://www.w3.org/2000/svg" width="40.854" height="32.687" viewBox="0 0 40.854 32.687">
  <g id="Group_3" data-name="Group 3" transform="translate(1.8 1.8)">
    <g id="Union_1" data-name="Union 1" transform="translate(10.836 29.087) rotate(-90)" fill="rgba(0,0,0,0.15)">
      <path d="M 16.13250732421875 27.31799125671387 L 16.08610725402832 27.31799125671387 L 16.03862762451172 27.3179817199707 L 2.165617227554321 27.3179817199707 C 0.4752272367477417 27.3179817199707 -0.9000027775764465 25.75996017456055 -0.9000027775764465 23.84489059448242 L -0.9000027775764465 2.618901014328003 C -0.9000027775764465 0.7038409113883972 0.4752272367477417 -0.8541790843009949 2.165617227554321 -0.8541790843009949 L 16.03862762451172 -0.8541790843009949 C 16.23294639587402 -0.8541790843009949 16.41536712646484 -0.8665190935134888 16.59177780151367 -0.8784490823745728 C 16.75564765930176 -0.8895291090011597 16.91043663024902 -0.8999990820884705 17.06424713134766 -0.8999990820884705 C 17.34907341003418 -0.8999990820884705 17.76049423217773 -0.8665103316307068 18.12218284606934 -0.5906909108161926 C 18.36544990539551 -0.433458000421524 18.57586860656738 -0.2113994210958481 18.74954605102539 0.07128900289535522 L 29.42633628845215 11.22425079345703 L 29.50777816772461 11.3093204498291 L 29.5645866394043 11.4124813079834 C 30.12844657897949 12.43643093109131 30.12837791442871 13.98018074035645 29.56442642211914 15.00339126586914 L 29.50766754150391 15.10637092590332 L 29.42635726928711 15.19131088256836 L 18.74920272827148 26.34531784057617 C 18.74595642089844 26.35058975219727 18.74269676208496 26.3558406829834 18.73942565917969 26.36106872558594 C 18.59967613220215 26.61412239074707 18.41074562072754 26.81851577758789 18.17702865600586 26.96950149536133 C 17.93238258361816 27.14127349853516 17.65757179260254 27.24052810668945 17.37548065185547 27.25947380065918 C 17.01357650756836 27.31799507141113 16.60323905944824 27.31799125671387 16.13250732421875 27.31799125671387 Z" stroke="none"/>
      <path d="M 16.13250732421875 26.41799163818359 C 16.61695671081543 26.41799163818359 16.99113655090332 26.41636085510254 17.27914810180664 26.36280059814453 C 17.4134578704834 26.36207008361816 17.54770660400391 26.31537055969238 17.67409706115723 26.22271156311035 C 17.79453659057617 26.14860153198242 17.88898658752441 26.04643058776855 17.96261787414551 25.90544128417969 C 17.9843864440918 25.87184143066406 18.00557708740234 25.83644104003906 18.02613639831543 25.79915046691895 L 28.77621650695801 14.56896114349365 C 29.19045639038086 13.81738090515137 29.19045639038086 12.59886074066162 28.77621650695801 11.84662055969238 L 18.02613639831543 0.6171008944511414 C 17.90290641784668 0.3933208882808685 17.7568473815918 0.236100897192955 17.60157775878906 0.1454609036445618 C 17.47029304504395 0.03126796707510948 17.29069709777832 4.378967332741013e-06 17.06424331665039 4.378967332741013e-06 C 16.79012870788574 4.378967332741013e-06 16.44736671447754 0.04582090303301811 16.03862762451172 0.04582090303301811 L 2.165617227554321 0.04582090303301811 C 0.9696272611618042 0.04582090303301811 -2.758483788056765e-06 1.198290944099426 -2.758483788056765e-06 2.618901014328003 L -2.758483788056765e-06 23.84489059448242 C -2.758483788056765e-06 25.26616096496582 0.9696272611618042 26.4179801940918 2.165617227554321 26.4179801940918 L 16.03862762451172 26.4179801940918 C 16.0704174041748 26.4179801940918 16.10162734985352 26.41799163818359 16.13250732421875 26.41799163818359 M 16.13250732421875 28.21799087524414 L 16.08595657348633 28.21799087524414 L 16.03862762451172 28.21798133850098 L 2.165617227554321 28.21798133850098 C 1.063177227973938 28.21798133850098 0.003107241587713361 27.70972061157227 -0.7428027391433716 26.82353019714355 C -1.424552798271179 26.0135612487793 -1.800002813339233 24.95573043823242 -1.800002813339233 23.84489059448242 L -1.800002813339233 2.618901014328003 C -1.800002813339233 1.508360862731934 -1.424582719802856 0.450660914182663 -0.7429027557373047 -0.3593690991401672 C 0.00306724151596427 -1.245789051055908 1.06318724155426 -1.754179120063782 2.165617227554321 -1.754179120063782 L 16.03862762451172 -1.754179120063782 C 16.20254707336426 -1.754179120063782 16.36210632324219 -1.764969110488892 16.53103637695312 -1.7763991355896 C 16.70261764526367 -1.787999153137207 16.88002777099609 -1.799999117851257 17.06424713134766 -1.799999117851257 C 17.30417251586914 -1.799999117851257 17.99982643127441 -1.799991369247437 18.63906097412109 -1.328036427497864 C 18.95793151855469 -1.11633825302124 19.23340797424316 -0.8344194889068604 19.46133804321289 -0.4866593480110168 L 30.07646751403809 10.60189056396484 L 30.23933792114258 10.7720308303833 L 30.35295677185059 10.97835063934326 C 31.06464767456055 12.2707405090332 31.06450653076172 14.14622116088867 30.35263633728027 15.43782043457031 L 30.23911666870117 15.64377117156982 L 30.07649803161621 15.8136510848999 L 19.47212409973145 26.89162635803223 C 19.26881217956543 27.22786140441895 19.00300216674805 27.50451469421387 18.67963790893555 27.71622467041016 C 18.31514739990234 27.96861457824707 17.90442848205566 28.11812400817871 17.47869300842285 28.15422821044922 C 17.05602836608887 28.21799087524414 16.60617828369141 28.21799087524414 16.13250732421875 28.21799087524414 Z" stroke="none" fill="#fff"/>
    </g>
    <g id="Union_3" data-name="Union 3" transform="translate(0 29.087) rotate(-90)" fill="rgba(0,0,0,0.15)">
      <path d="M 16.13250732421875 27.31799125671387 L 16.08610725402832 27.31799125671387 L 16.03862762451172 27.3179817199707 L 2.165617227554321 27.3179817199707 C 0.4752272367477417 27.3179817199707 -0.9000027775764465 25.75996017456055 -0.9000027775764465 23.84489059448242 L -0.9000027775764465 2.618901014328003 C -0.9000027775764465 0.7038409113883972 0.4752272367477417 -0.8541790843009949 2.165617227554321 -0.8541790843009949 L 16.03862762451172 -0.8541790843009949 C 16.23294639587402 -0.8541790843009949 16.41536712646484 -0.8665190935134888 16.59177780151367 -0.8784490823745728 C 16.75564765930176 -0.8895291090011597 16.91043663024902 -0.8999990820884705 17.06424713134766 -0.8999990820884705 C 17.34907341003418 -0.8999990820884705 17.76049423217773 -0.8665103316307068 18.12218284606934 -0.5906909108161926 C 18.36544990539551 -0.433458000421524 18.57586860656738 -0.2113994210958481 18.74954605102539 0.07128900289535522 L 29.42633628845215 11.22425079345703 L 29.50777816772461 11.3093204498291 L 29.5645866394043 11.4124813079834 C 30.12844657897949 12.43643093109131 30.12837791442871 13.98018074035645 29.56442642211914 15.00339126586914 L 29.50766754150391 15.10637092590332 L 29.42635726928711 15.19131088256836 L 18.74920272827148 26.34531784057617 C 18.74595642089844 26.35058975219727 18.74269676208496 26.3558406829834 18.73942565917969 26.36106872558594 C 18.59967613220215 26.61412239074707 18.41074562072754 26.81851577758789 18.17702865600586 26.96950149536133 C 17.93238258361816 27.14127349853516 17.65757179260254 27.24052810668945 17.37548065185547 27.25947380065918 C 17.01357650756836 27.31799507141113 16.60323905944824 27.31799125671387 16.13250732421875 27.31799125671387 Z" stroke="none"/>
      <path d="M 16.13250732421875 26.41799163818359 C 16.61695671081543 26.41799163818359 16.99113655090332 26.41636085510254 17.27914810180664 26.36280059814453 C 17.4134578704834 26.36207008361816 17.54770660400391 26.31537055969238 17.67409706115723 26.22271156311035 C 17.79453659057617 26.14860153198242 17.88898658752441 26.04643058776855 17.96261787414551 25.90544128417969 C 17.9843864440918 25.87184143066406 18.00557708740234 25.83644104003906 18.02613639831543 25.79915046691895 L 28.77621650695801 14.56896114349365 C 29.19045639038086 13.81738090515137 29.19045639038086 12.59886074066162 28.77621650695801 11.84662055969238 L 18.02613639831543 0.6171008944511414 C 17.90290641784668 0.3933208882808685 17.7568473815918 0.236100897192955 17.60157775878906 0.1454609036445618 C 17.47029304504395 0.03126796707510948 17.29069709777832 4.378967332741013e-06 17.06424331665039 4.378967332741013e-06 C 16.79012870788574 4.378967332741013e-06 16.44736671447754 0.04582090303301811 16.03862762451172 0.04582090303301811 L 2.165617227554321 0.04582090303301811 C 0.9696272611618042 0.04582090303301811 -2.758483788056765e-06 1.198290944099426 -2.758483788056765e-06 2.618901014328003 L -2.758483788056765e-06 23.84489059448242 C -2.758483788056765e-06 25.26616096496582 0.9696272611618042 26.4179801940918 2.165617227554321 26.4179801940918 L 16.03862762451172 26.4179801940918 C 16.0704174041748 26.4179801940918 16.10162734985352 26.41799163818359 16.13250732421875 26.41799163818359 M 16.13250732421875 28.21799087524414 L 16.08595657348633 28.21799087524414 L 16.03862762451172 28.21798133850098 L 2.165617227554321 28.21798133850098 C 1.063177227973938 28.21798133850098 0.003107241587713361 27.70972061157227 -0.7428027391433716 26.82353019714355 C -1.424552798271179 26.0135612487793 -1.800002813339233 24.95573043823242 -1.800002813339233 23.84489059448242 L -1.800002813339233 2.618901014328003 C -1.800002813339233 1.508360862731934 -1.424582719802856 0.450660914182663 -0.7429027557373047 -0.3593690991401672 C 0.00306724151596427 -1.245789051055908 1.06318724155426 -1.754179120063782 2.165617227554321 -1.754179120063782 L 16.03862762451172 -1.754179120063782 C 16.20254707336426 -1.754179120063782 16.36210632324219 -1.764969110488892 16.53103637695312 -1.7763991355896 C 16.70261764526367 -1.787999153137207 16.88002777099609 -1.799999117851257 17.06424713134766 -1.799999117851257 C 17.30417251586914 -1.799999117851257 17.99982643127441 -1.799991369247437 18.63906097412109 -1.328036427497864 C 18.95793151855469 -1.11633825302124 19.23340797424316 -0.8344194889068604 19.46133804321289 -0.4866593480110168 L 30.07646751403809 10.60189056396484 L 30.23933792114258 10.7720308303833 L 30.35295677185059 10.97835063934326 C 31.06464767456055 12.2707405090332 31.06450653076172 14.14622116088867 30.35263633728027 15.43782043457031 L 30.23911666870117 15.64377117156982 L 30.07649803161621 15.8136510848999 L 19.47212409973145 26.89162635803223 C 19.26881217956543 27.22786140441895 19.00300216674805 27.50451469421387 18.67963790893555 27.71622467041016 C 18.31514739990234 27.96861457824707 17.90442848205566 28.11812400817871 17.47869300842285 28.15422821044922 C 17.05602836608887 28.21799087524414 16.60617828369141 28.21799087524414 16.13250732421875 28.21799087524414 Z" stroke="none" fill="#fff"/>
    </g>
  </g>
</svg>
