<svg id="facebook" xmlns="http://www.w3.org/2000/svg" width="34" height="34" viewBox="0 0 34 34">
  <path id="Path_8" data-name="Path 8" d="M291.472,508.668q-.307.05-.617.092Q291.165,508.718,291.472,508.668Zm0,0" transform="translate(-271.65 -474.988)" fill="#fff"/>
  <path id="Path_9" data-name="Path 9" d="M299.633,507.793l-.294.051Zm0,0" transform="translate(-279.515 -474.197)" fill="#fff"/>
  <path id="Path_10" data-name="Path 10" d="M278.332,510.34q-.359.041-.723.071Q277.972,510.381,278.332,510.34Zm0,0" transform="translate(-259.297 -476.499)" fill="#fff"/>
  <path id="Path_11" data-name="Path 11" d="M286.792,509.738c-.115.015-.231.03-.346.043C286.561,509.768,286.677,509.754,286.792,509.738Zm0,0" transform="translate(-267.484 -475.955)" fill="#fff"/>
  <path id="Path_12" data-name="Path 12" d="M306.924,506.41l-.26.054Zm0,0" transform="translate(-286.348 -472.947)" fill="#fff"/>
  <path id="Path_13" data-name="Path 13" d="M324.694,502.113l-.209.058Zm0,0" transform="translate(-302.978 -469.062)" fill="#fff"/>
  <path id="Path_14" data-name="Path 14" d="M319.287,503.543l-.228.059Zm0,0" transform="translate(-297.915 -470.355)" fill="#fff"/>
  <path id="Path_15" data-name="Path 15" d="M312.309,505.254l-.242.054Zm0,0" transform="translate(-291.389 -471.902)" fill="#fff"/>
  <path id="Path_16" data-name="Path 16" d="M273.869,511.09q-.194.016-.389.029Q273.675,511.106,273.869,511.09Zm0,0" transform="translate(-255.384 -477.177)" fill="#fff"/>
  <path id="Path_17" data-name="Path 17" d="M34,17A17,17,0,1,0,17,34c.1,0,.2,0,.3,0V20.762H13.646V16.506H17.3V13.374c0-3.633,2.218-5.61,5.458-5.61a30.065,30.065,0,0,1,3.274.167v3.8H23.8c-1.763,0-2.1.838-2.1,2.067v2.711h4.215l-.549,4.256H21.693V33.343A17.009,17.009,0,0,0,34,17Zm0,0" fill="#fff"/>
  <path id="Path_18" data-name="Path 18" d="M265.661,511.43q-.384.025-.77.038Q265.277,511.455,265.661,511.43Zm0,0" transform="translate(-247.425 -477.484)" fill="#fff"/>
  <path id="Path_19" data-name="Path 19" d="M260.912,511.836q-.2.007-.408.01Q260.708,511.843,260.912,511.836Zm0,0" transform="translate(-243.269 -477.852)" fill="#fff"/>
</svg>
